# xmcd CD database file
#
# Track frame offsets:
#	150
#	14732
#	28895
#	57157
#	73275
#	102030
#	129125
#	145660
#	174835
#	185387
#	201515
#	229765
#	251205
#	263275
#
# Disc length: 3774 seconds
#
# Revision: 7
# Processed by: cddbd v1.5PL3 Copyright (c) Steve Scherf et al.
# Submitted via: CDex 1.51
#
DISCID=c20ebc0e
DTITLE=Cesaria Evora - Cabo Verde
DYEAR=1900
DGENRE=Blues
TTITLE0=Tchintchirote
TTITLE1=Sabine Larga'm
TTITLE2=Partida
TTITLE3=Sangre de Beirona
TTITLE4=Apocalipse
TTITLE5=Mar e Morada De Sodage
TTITLE6=Bo e di meu Cretcheu
TTITLE7=Coragem irmon
TTITLE8=Quem bo e
TTITLE9=Regresso
TTITLE10=Zebra
TTITLE11=Mae Velha
TTITLE12=Pe di boi
TTITLE13=Ess pais
EXTD=
EXTT0=
EXTT1=
EXTT2=
EXTT3=
EXTT4=
EXTT5=
EXTT6=
EXTT7=
EXTT8=
EXTT9=
EXTT10=
EXTT11=
EXTT12=
EXTT13=
PLAYORDER=
